{"title":"Helen of Troy-AC3-XviD-DVDRip 2003 TBS","uid":6098588,"size":1884664370,"categoryP":"video","categoryS":"movies","magnet":"?xt=urn:btih:088b33ec90fffd2bd0059874d887aa2b96ea4434&amp;dn=Helen+of+Troy-AC3-XviD-DVDRip+2003+TBS&amp;tr=udp%3A%2F%2Ftracker.openbittorrent.com%3A80&amp;tr=udp%3A%2F%2Fopen.demonii.com%3A1337&amp;tr=udp%3A%2F%2Ftracker.coppersurfer.tk%3A6969&amp;tr=udp%3A%2F%2Fexodus.desync.com%3A6969","seeders":3,"leechers":0,"uploader":"FatFreddy30","files":-1,"time":1294873148,"description":"The abduction of beautiful Helen, wife of Spartan King Menelaus, by Paris of Troy triggers a long war.\n &lt;a href=&quot;\nhttp://www.imdb.com/title/tt0340477/&quot; rel=&quot;nofollow&quot; target=&quot;_NEW&quot;&gt;\nhttp://www.imdb.com/title/tt0340477/&lt;/a&gt;\n\nSubs: Dutch (srt).\n\nHelena is getrouwd met de koning van Sparta, maar wordt hopeloos verliefd op Paris, een knappe Trojaanse prins. De minnaars vluchten samen naar Troje, waar koning Priamus hen onderdak biedt. Agamemnon, de meedogenloze broer van de koning van Sparta, zet zich in om Helena terug te halen en leidt het goed getrainde Spartaanse leger naar Troje. Na een belegering van tien jaar krijgen de Grieken met hun beroemde paard van Troje toegang tot de vesting. Dit is het begin van het beslissende gevecht dat uiteindelijk het lot van de twee rijken zal beslechten.\n &lt;a href=&quot;\nhttp://www.moviemeter.nl/film/21806&quot; rel=&quot;nofollow&quot; target=&quot;_NEW&quot;&gt;\nhttp://www.moviemeter.nl/film/21806&lt;/a&gt;\n\nOndertitels : Nederlands (srt).\n\nGeneral\nComplete name                    : Helen of Troy-AC3-XviD-DVDRip 2003 TBS\\Helen of Troy-AC3-XviD-DVDRip 2003.avi\nFormat                           : AVI\nFormat/Info                      : Audio Video Interleave\nFile size                        : 1.75 GiB\nDuration                         : 2h 47mn\nOverall bit rate                 : 1 500 Kbps\nWriting application              : VirtualDubMod 1.5.4.1 (build 2178/release)\nWriting library                  : VirtualDubMod build 2178/release\n\nVideo\nID                               : 0\nFormat                           : MPEG-4 Visual\nFormat profile                   : Simple@L3\nFormat settings, BVOP            : No\nFormat settings, QPel            : No\nFormat settings, GMC             : No warppoints\nFormat settings, Matrix          : Default (H.263)\nCodec ID                         : XVID\nCodec ID/Hint                    : XviD\nDuration                         : 2h 47mn\nBit rate                         : 1 106 Kbps\nWidth                            : 720 pixels\nHeight                           : 400 pixels\nDisplay aspect ratio             : 16:9\nFrame rate                       : 25.000 fps\nResolution                       : 8 bits\nColorimetry                      : 4:2:0\nScan type                        : Progressive\nBits/(Pixel*Frame)               : 0.154\nStream size                      : 1.29 GiB (74%)\nWriting library                  : XviD 1.1.2 (UTC 2006-11-01)\n\nAudio\nID                               : 1\nFormat                           : AC-3\nFormat/Info                      : Audio Coding 3\nCodec ID                         : 2000\nDuration                         : 2h 47mn\nBit rate mode                    : Constant\nBit rate                         : 384 Kbps\nChannel(s)                       : 6 channels\nChannel positions                : Front: L C R, Surround: L R, LFE\nSampling rate                    : 48.0 KHz\nStream size                      : 460 MiB (26%)\nAlignment                        : Split accross interleaves\nInterleave, duration             : 40 ms (1.00 video frame)\nInterleave, preload duration     : 500 ms\n\nBlackbeard  TBS.","torrent":{"xt":"urn:btih:088b33ec90fffd2bd0059874d887aa2b96ea4434","amp;dn":"Helen+of+Troy-AC3-XviD-DVDRip+2003+TBS","amp;tr":["udp%3A%2F%2Ftracker.openbittorrent.com%3A80","udp%3A%2F%2Fopen.demonii.com%3A1337","udp%3A%2F%2Ftracker.coppersurfer.tk%3A6969","udp%3A%2F%2Fexodus.desync.com%3A6969"],"infoHash":"088b33ec90fffd2bd0059874d887aa2b96ea4434","infoHashBuffer":{"type":"Buffer","data":[8,139,51,236,144,255,253,43,208,5,152,116,216,135,170,43,150,234,68,52]},"announce":[],"urlList":[]}}